<svg width="45" height="46" viewBox="0 0 45 46" fill="none" xmlns="http://www.w3.org/2000/svg">
<path d="M22.1418 0.999998H22.3092C26.3448 0.999998 30.1211 2.12383 33.3557 4.08L33.2567 4.02316C36.5665 5.97855 39.3249 8.77094 41.2648 12.1302L41.3206 12.2365C43.2819 15.6681 44.3096 19.5702 44.2978 23.5408C44.2978 33.4518 38.0284 41.8742 29.3093 44.9138L29.1527 44.9615C28.9576 45.0214 28.7515 45.0339 28.5508 44.9979C28.3501 44.9619 28.1605 44.8785 27.9972 44.7543L28.0008 44.7562C27.8828 44.6487 27.7884 44.517 27.7239 44.3698C27.6594 44.2225 27.6261 44.0631 27.6264 43.9018V43.8762V43.878L27.6408 41.6303C27.6504 40.1906 27.6552 38.8742 27.6552 37.6813C27.7219 36.9169 27.6221 36.1468 27.3629 35.4262C27.1037 34.7055 26.6916 34.052 26.1558 33.5123C27.1996 33.4103 28.2337 33.2233 29.2481 32.9532L29.1113 32.9843C30.0792 32.7143 31.009 32.3187 31.8779 31.8073L31.8221 31.8385C32.7089 31.3447 33.4975 30.6869 34.1477 29.8988L34.1585 29.886C34.8456 28.9874 35.3587 27.964 35.6705 26.8702L35.6867 26.806C36.084 25.4491 36.2835 24.0401 36.2789 22.6242L36.2771 22.3748V22.3877L36.2789 22.2557C36.2816 20.0583 35.4652 17.9418 33.9947 16.334L34.0001 16.3395C34.3025 15.5328 34.4771 14.6015 34.4771 13.628C34.4785 12.4784 34.2302 11.3427 33.7499 10.3023L33.7697 10.35C32.9691 10.1984 32.1419 10.3148 31.4117 10.6818L31.4333 10.6727C30.4858 11.0252 29.5743 11.471 28.7118 12.0037L28.7802 11.9633L27.684 12.6673C26.0244 12.1833 24.1182 11.9047 22.149 11.9047C20.1799 11.9047 18.2737 12.1833 16.4665 12.704L16.6123 12.6673C16.3051 12.4522 15.8965 12.1876 15.3865 11.8735C14.652 11.4504 13.8866 11.0857 13.0969 10.7827L12.9781 10.7423C12.2187 10.3397 11.3505 10.2019 10.5068 10.35L10.5302 10.3463C10.0606 11.3727 9.81907 12.492 9.82279 13.6243C9.82279 14.5978 9.99738 15.531 10.3178 16.3908L10.2998 16.3377C8.79938 17.9796 7.98308 20.1505 8.02281 22.3932V22.3858L8.02101 22.6242C8.02101 24.1073 8.23701 25.541 8.6402 26.8903L8.6132 26.7858C8.9534 27.9647 9.46999 28.9895 10.1432 29.8897L10.127 29.8658C10.758 30.6573 11.5322 31.3183 12.4076 31.8128L12.4472 31.833C13.2247 32.295 14.1265 32.6855 15.0751 32.9587L15.1579 32.9788C15.9967 33.208 17.0011 33.395 18.0289 33.4995L18.1117 33.5068C17.3359 34.2915 16.8193 35.3402 16.7005 36.5098L16.6987 36.5318C16.298 36.7273 15.8755 36.8726 15.4405 36.9645L15.4027 36.9718C14.9419 37.0653 14.4145 37.1185 13.8727 37.1185H13.7539H13.7593C13.0777 37.1053 12.4159 36.8829 11.8604 36.4805L11.8712 36.4878C11.2103 36.0207 10.667 35.4014 10.2854 34.6802L10.2728 34.6527C9.9264 34.0504 9.45451 33.5328 8.8904 33.1365L8.8742 33.1255C8.4553 32.8066 7.98157 32.5704 7.47742 32.4288L7.44862 32.4215L6.87262 32.3335C6.58355 32.3118 6.29344 32.3582 6.02483 32.4692L6.03743 32.4637C5.88384 32.5517 5.83584 32.6641 5.89344 32.801C5.96363 32.9587 6.05003 33.0943 6.15443 33.2135L6.15263 33.2117C6.26243 33.3437 6.38663 33.4592 6.52163 33.56L6.52703 33.5637L6.72862 33.7103C7.23802 33.9817 7.65741 34.3593 7.97601 34.8158L7.98321 34.8268C8.32701 35.2613 8.6294 35.7527 8.8724 36.2788L8.8904 36.3228L9.17839 36.9975C9.42139 37.7345 9.86239 38.3505 10.4384 38.796L10.4474 38.8033C10.9874 39.2323 11.639 39.5403 12.35 39.6797L12.3788 39.6833C12.9727 39.8007 13.6639 39.874 14.3695 39.8887H14.3821C14.4631 39.8923 14.5567 39.8923 14.6521 39.8923C15.1219 39.8923 15.5827 39.8538 16.0327 39.7787L15.9841 39.786L16.6465 39.6687C16.6465 40.413 16.6513 41.2796 16.6609 42.2683C16.6705 43.2571 16.6753 43.7906 16.6753 43.8688V43.8945C16.6753 44.2337 16.5313 44.538 16.3009 44.7488C16.1371 44.8742 15.9446 44.958 15.7427 44.9934C15.5409 45.0288 15.3336 45.0147 15.1381 44.9523L15.1471 44.9542C6.27503 41.8577 0.0111084 33.4353 0.0111084 23.5225C0.0111084 19.3645 1.11269 15.4687 3.03687 12.121L2.97927 12.2273C4.89908 8.85614 7.64067 6.0467 10.9388 4.07083L11.0432 4.014C14.3552 2.02786 18.131 0.986161 21.9744 0.998165H22.1508H22.1418V0.999998ZM8.39 33.3877C8.4476 33.2508 8.3804 33.1334 8.18841 33.0357C7.99641 32.977 7.87161 32.9966 7.81401 33.0943C7.75641 33.2312 7.82361 33.3486 8.01561 33.4463C8.18841 33.5637 8.3132 33.5441 8.39 33.3877ZM9.28459 34.3868C9.41899 34.2891 9.39979 34.1326 9.22699 33.9175C9.035 33.7415 8.8814 33.7122 8.7662 33.8295C8.6318 33.9273 8.651 34.0837 8.8238 34.2988C9.0146 34.4907 9.16819 34.5194 9.28459 34.385V34.3868ZM10.1486 35.7068C10.3214 35.5699 10.3214 35.3842 10.1486 35.1495C9.99498 34.8953 9.83179 34.8366 9.65899 34.9735C9.48619 35.0713 9.48619 35.2473 9.65899 35.5015C9.83179 35.7557 9.99498 35.8242 10.1486 35.7068ZM11.3582 36.9407C11.5118 36.7842 11.4734 36.5984 11.243 36.3833C11.0126 36.1487 10.8206 36.1193 10.667 36.2953C10.4942 36.4518 10.5326 36.6376 10.7822 36.8527C11.0126 37.0873 11.2046 37.1142 11.3582 36.9333V36.9407ZM13.0015 37.674C13.0591 37.4589 12.9343 37.3024 12.6272 37.2047C12.3392 37.1264 12.1568 37.1949 12.08 37.41C12.0032 37.6251 12.128 37.7718 12.4544 37.85C12.7424 37.9686 12.9247 37.9099 13.0015 37.674ZM14.8177 37.8207C14.8177 37.5664 14.6545 37.4589 14.3281 37.498C14.0209 37.498 13.8673 37.6056 13.8673 37.8207C13.8673 38.0749 14.0305 38.1824 14.3569 38.1433C14.6641 38.1446 14.8177 38.0358 14.8177 37.8207ZM16.4899 37.5273C16.4515 37.3122 16.2787 37.2242 15.9715 37.2633C15.6643 37.322 15.5299 37.4687 15.5683 37.7033C15.6067 37.938 15.7795 38.0162 16.0867 37.938C16.3939 37.8598 16.5271 37.7229 16.4899 37.5273Z" fill="#5E0EC0"/>
</svg>
