<svg width="45" height="45" viewBox="0 0 45 45" fill="none" xmlns="http://www.w3.org/2000/svg">
<path d="M32.4713 0.144375C34.755 0.249375 36.3338 0.585 37.7925 1.15125C39.1756 1.66839 40.4278 2.48398 41.46 3.54C42.516 4.57216 43.3316 5.82435 43.8487 7.2075C44.415 8.66813 44.7506 10.245 44.8556 12.5288C44.985 15.36 45 16.3575 45 22.5C45 28.6425 44.985 29.64 44.8556 32.4713C44.7506 34.755 44.415 36.3337 43.8487 37.7944C43.3314 39.1768 42.5158 40.4284 41.46 41.46C40.4279 42.5161 39.1757 43.3317 37.7925 43.8487C36.3319 44.415 34.755 44.7506 32.4713 44.8556C29.64 44.985 28.6444 45 22.5 45C16.3556 45 15.3581 44.985 12.5288 44.8556C10.245 44.7506 8.66625 44.415 7.20562 43.8487C5.82312 43.3314 4.57158 42.5158 3.54 41.46C2.48398 40.4278 1.66839 39.1756 1.15125 37.7925C0.585 36.3319 0.249375 34.755 0.144375 32.4713C0.015 29.6438 0 28.6463 0 22.5C0 16.3556 0.015 15.3563 0.144375 12.5288C0.249375 10.245 0.585 8.66625 1.15125 7.2075C1.66839 5.82435 2.48398 4.57216 3.54 3.54C4.57162 2.48421 5.82315 1.66864 7.20562 1.15125C8.66812 0.585 10.245 0.249375 12.5288 0.144375C15.3563 0.015 16.3537 0 22.5 0C28.6444 0 29.6438 0.015 32.4713 0.144375ZM22.5 5.00063C16.425 5.00063 15.495 5.01375 12.7556 5.13937C11.0175 5.21812 9.975 5.43937 9.01688 5.8125C8.28146 6.07917 7.61695 6.51084 7.07438 7.07438C6.50965 7.61596 6.07778 8.28077 5.8125 9.01688C5.44125 9.97313 5.21812 11.0175 5.13937 12.7556C5.01375 15.495 5.00063 16.425 5.00063 22.5C5.00063 28.575 5.01375 29.505 5.13937 32.2444C5.21812 33.9825 5.43937 35.025 5.8125 35.9813C6.13125 36.7988 6.46875 37.3181 7.07438 37.9256C7.68188 38.5331 8.20125 38.8706 9.01688 39.1875C9.97313 39.5587 11.0175 39.7819 12.7556 39.8606C15.4969 39.9863 16.4269 39.9994 22.5 39.9994C28.575 39.9994 29.5031 39.9863 32.2444 39.8606C33.9825 39.7819 35.025 39.5606 35.9831 39.1875C36.7185 38.9208 37.3831 38.4892 37.9256 37.9256C38.5331 37.3181 38.8706 36.7987 39.1875 35.9831C39.5587 35.0269 39.7819 33.9825 39.8606 32.2444C39.9863 29.5031 39.9994 28.5731 39.9994 22.5C39.9994 16.4269 39.9863 15.4969 39.8606 12.7556C39.7819 11.0175 39.5606 9.975 39.1875 9.01875C38.9224 8.28203 38.4905 7.61658 37.9256 7.07438C37.3835 6.50946 36.718 6.07758 35.9813 5.8125C35.025 5.44125 33.9806 5.21812 32.2425 5.13937C29.5031 5.01375 28.5731 5.00063 22.4981 5.00063H22.5ZM22.5 34.1663C19.4059 34.1663 16.4386 32.9371 14.2507 30.7493C12.0629 28.5614 10.8337 25.5941 10.8337 22.5C10.8337 19.4059 12.0629 16.4386 14.2507 14.2507C16.4386 12.0629 19.4059 10.8337 22.5 10.8337C25.5941 10.8337 28.5614 12.0629 30.7493 14.2507C32.9371 16.4386 34.1663 19.4059 34.1663 22.5C34.1663 25.5941 32.9371 28.5614 30.7493 30.7493C28.5614 32.9371 25.5941 34.1663 22.5 34.1663ZM22.5 29.1675C24.2683 29.1675 25.9642 28.465 27.2146 27.2146C28.465 25.9642 29.1675 24.2683 29.1675 22.5C29.1675 20.7317 28.465 19.0358 27.2146 17.7854C25.9642 16.535 24.2683 15.8325 22.5 15.8325C20.7317 15.8325 19.0358 16.535 17.7854 17.7854C16.535 19.0358 15.8325 20.7317 15.8325 22.5C15.8325 24.2683 16.535 25.9642 17.7854 27.2146C19.0358 28.465 20.7317 29.1675 22.5 29.1675ZM34.1663 13.3331C33.5031 13.3331 32.8672 13.0697 32.3983 12.6008C31.9294 12.1319 31.6659 11.4959 31.6659 10.8328C31.6659 10.1697 31.9294 9.53372 32.3983 9.06482C32.8672 8.59593 33.5031 8.3325 34.1663 8.3325C34.8294 8.3325 35.4653 8.59593 35.9342 9.06482C36.4031 9.53372 36.6666 10.1697 36.6666 10.8328C36.6666 11.4959 36.4031 12.1319 35.9342 12.6008C35.4653 13.0697 34.8294 13.3331 34.1663 13.3331Z" fill="#5E0EC0"/>
</svg>
