<svg width="45" height="45" viewBox="0 0 45 45" fill="none" xmlns="http://www.w3.org/2000/svg">
<path d="M9.83095 38.209C5.17647 29.8638 2.40736 24.8241 2.40736 24.699C2.40736 24.4949 2.69172 24.5232 5.48825 25.0031C10.4066 25.8481 13.0344 26.0865 17.4148 26.0879C23.2102 26.0893 27.9295 25.2861 31.5963 23.6723C33.536 22.8184 34.7026 22.0615 35.658 21.0362C36.8349 19.7725 37.2129 18.9022 37.2265 17.4373C37.2384 16.0441 37.0238 15.3094 36.1025 13.6046C35.7379 12.9309 35.4178 12.1576 35.3871 11.8863C35.3394 11.4497 35.3803 11.3871 35.7482 11.3498C36.5521 11.2665 40.5201 14.6372 41.9814 16.6445C44.5002 20.1061 44.7046 23.8509 42.5725 27.4721C41.2626 29.697 39.8152 31.2363 37.3917 32.9859C33.3639 35.8917 28.6822 37.9153 22.2174 39.5456C18.745 40.4219 13.1299 41.4844 11.9735 41.4844C11.7284 41.4844 11.2683 40.781 9.83437 38.2075L9.83095 38.2089V38.209ZM11.1271 24.7511C6.60542 24.2385 2.81115 23.7928 2.69363 23.7601C2.49274 23.7035 1.77405 21.6054 1.36864 19.8976C1.26649 19.4654 1.11652 18.3209 1.03486 17.3524C0.670239 13.0308 1.74492 10.0429 4.62481 7.35618C9.50058 2.81118 19.9403 2.25826 31.7187 5.92119C33.7861 6.56499 34.6071 7.012 34.2274 7.29061C33.9464 7.49628 32.0424 7.49329 28.752 7.28165C23.6088 6.95083 19.6935 7.5767 17.6754 9.05493C14.603 11.3051 15.0714 16.2377 19.0345 23.3532C19.4637 24.1236 19.8963 24.8776 19.995 25.031C20.225 25.3842 20.0581 25.7121 19.6578 25.6957C19.4874 25.6886 15.6485 25.264 11.127 24.7512L11.1271 24.7511ZM26.2961 20.8797C22.6873 20.312 19.443 18.3538 18.3956 16.1141C17.8932 15.0383 17.917 13.6345 18.4535 12.7941C18.9388 12.0341 20.1922 11.155 21.3146 10.7868C23.1829 10.1744 26.4544 10.4187 28.8387 11.3502C31.1021 12.2339 33.1084 13.7881 33.8542 15.2336C34.8115 17.0888 34.0142 19.1587 31.9638 20.1467C30.6047 20.8009 27.9633 21.1422 26.2943 20.8798L26.2961 20.8797Z" fill="#5E0EC0"/>
</svg>
