<svg width="45" height="45" viewBox="0 0 45 45" fill="none" xmlns="http://www.w3.org/2000/svg">
<path fill-rule="evenodd" clip-rule="evenodd" d="M1.875 5.32125C1.875 4.40725 2.23809 3.53069 2.88438 2.88439C3.53068 2.23809 4.40725 1.875 5.32125 1.875H39.675C40.128 1.87426 40.5766 1.96287 40.9953 2.13575C41.4139 2.30864 41.7944 2.5624 42.1148 2.88251C42.4353 3.20262 42.6895 3.5828 42.8628 4.00127C43.0362 4.41975 43.1252 4.8683 43.125 5.32125V39.675C43.1255 40.128 43.0367 40.5767 42.8636 40.9954C42.6905 41.4141 42.4365 41.7945 42.1163 42.115C41.796 42.4354 41.4157 42.6895 40.9971 42.8629C40.5786 43.0362 40.1299 43.1253 39.6769 43.125H5.32125C4.86852 43.125 4.42023 43.0358 4.00199 42.8625C3.58375 42.6892 3.20376 42.4352 2.88372 42.115C2.56368 41.7947 2.30987 41.4146 2.13679 40.9963C1.96371 40.5779 1.87475 40.1296 1.875 39.6769V5.32125ZM18.2025 17.6025H23.7881V20.4075C24.5944 18.795 26.6569 17.3438 29.7562 17.3438C35.6981 17.3438 37.1063 20.5556 37.1063 26.4488V37.365H31.0931V27.7913C31.0931 24.435 30.2869 22.5413 28.2394 22.5413C25.3987 22.5413 24.2175 24.5831 24.2175 27.7913V37.365H18.2025V17.6025ZM7.89 37.1081H13.905V17.3438H7.89V37.1081ZM14.7656 10.8975C14.777 11.4125 14.6853 11.9246 14.4961 12.4037C14.3068 12.8828 14.0238 13.3193 13.6636 13.6876C13.3033 14.0558 12.8732 14.3484 12.3984 14.5481C11.9235 14.7479 11.4136 14.8508 10.8984 14.8508C10.3833 14.8508 9.87335 14.7479 9.39852 14.5481C8.92369 14.3484 8.49354 14.0558 8.13332 13.6876C7.77309 13.3193 7.49005 12.8828 7.3008 12.4037C7.11155 11.9246 7.01991 11.4125 7.03125 10.8975C7.05351 9.88661 7.47072 8.92461 8.19354 8.21754C8.91635 7.51047 9.8873 7.11454 10.8984 7.11454C11.9096 7.11454 12.8805 7.51047 13.6033 8.21754C14.3262 8.92461 14.7434 9.88661 14.7656 10.8975Z" fill="#5E0EC0"/>
</svg>
