<svg xmlns="http://www.w3.org/2000/svg"  viewBox="0 0 64 64" width="64px" height="64px"><linearGradient id="0cib3gbsfYWZ5fGhgTXhSa" x1="43.5" x2="43.5" y1="23" y2="57.33" gradientUnits="userSpaceOnUse" spreadMethod="reflect"><stop offset="0" stop-color="#6dc7ff"/><stop offset="1" stop-color="#e6abff"/></linearGradient><path fill="url(#0cib3gbsfYWZ5fGhgTXhSa)" d="M47.477,32c0.633-0.838,1.023-1.869,1.023-3c0-2.761-2.239-5-5-5s-5,2.239-5,5 c0,1.131,0.39,2.162,1.023,3H32v8c0.83-0.63,1.87-1,3-1c2.76,0,5,2.24,5,5s-2.24,5-5,5c-1.13,0-2.17-0.37-3-1v7h18.47 c2.5,0,4.53-2.03,4.53-4.53V32H47.477z"/><linearGradient id="0cib3gbsfYWZ5fGhgTXhSb" x1="32" x2="32" y1="6.667" y2="57.684" gradientUnits="userSpaceOnUse" spreadMethod="reflect"><stop offset="0" stop-color="#1a6dff"/><stop offset="1" stop-color="#c822ff"/></linearGradient><path fill="url(#0cib3gbsfYWZ5fGhgTXhSb)" d="M51,8H33h-2H13c-2.757,0-5,2.243-5,5v18v2v18c0,2.757,2.243,5,5,5h18h2h18 c2.757,0,5-2.243,5-5V33v-2V13C56,10.243,53.757,8,51,8z M10,13c0-1.654,1.346-3,3-3h18v4.851c-0.639-0.231-1.313-0.351-2-0.351 c-1.803,0-3.494,0.8-4.64,2.195c-1.145,1.395-1.596,3.226-1.239,5.024c0.45,2.267,2.28,4.128,4.554,4.633 c1.136,0.252,2.273,0.178,3.325-0.203V31h-6h-2.531l1.21,1.603c0.537,0.711,0.82,1.54,0.82,2.397c0,1.202-0.534,2.33-1.464,3.094 c-0.943,0.774-2.138,1.067-3.366,0.823c-1.501-0.298-2.735-1.514-3.071-3.026c-0.258-1.163-0.002-2.331,0.721-3.288L18.531,31H16h-6 V13z M31,54H13c-1.654,0-3-1.346-3-3V33h4.85c-0.381,1.051-0.455,2.189-0.203,3.325c0.505,2.274,2.367,4.104,4.633,4.554 c0.404,0.08,0.809,0.12,1.21,0.12c1.388,0,2.732-0.471,3.814-1.359C25.7,38.494,26.5,36.803,26.5,35c0-0.688-0.119-1.361-0.351-2H31 v7v1.531l1.603-1.211c0.957-0.724,2.125-0.978,3.288-0.721c1.512,0.336,2.728,1.57,3.026,3.071c0.244,1.227-0.049,2.422-0.823,3.366 c-1.31,1.594-3.786,1.933-5.491,0.644L31,45.468V47V54z M54,51c0,1.654-1.346,3-3,3H33v-4.851c0.639,0.231,1.312,0.351,2,0.351 c1.803,0,3.494-0.8,4.64-2.195c1.145-1.395,1.596-3.226,1.239-5.024c-0.45-2.267-2.28-4.128-4.554-4.633 c-1.136-0.252-2.273-0.178-3.325,0.203V33h6h2.531l-1.211-1.603c-0.723-0.957-0.979-2.125-0.721-3.288 c0.336-1.512,1.57-2.728,3.071-3.026c1.229-0.246,2.423,0.048,3.366,0.823C46.966,26.67,47.5,27.798,47.5,29 c0,0.858-0.284,1.687-0.82,2.397L45.468,33H48h6V51z M49.149,31c0.231-0.639,0.351-1.313,0.351-2c0-1.803-0.8-3.494-2.195-4.64 c-1.395-1.145-3.224-1.596-5.024-1.239c-2.267,0.45-4.128,2.28-4.633,4.554c-0.252,1.136-0.178,2.273,0.203,3.325H33v-7v-1.531 l-1.603,1.211c-0.957,0.724-2.124,0.979-3.288,0.721c-1.512-0.336-2.728-1.57-3.026-3.071c-0.244-1.227,0.049-2.422,0.823-3.366 c1.309-1.595,3.783-1.934,5.491-0.644L33,18.531V16v-6h18c1.654,0,3,1.346,3,3v18H49.149z"/></svg>